<?xml version="1.0" encoding="UTF-8"?>
<svg id="Capa_1" data-name="Capa 1" xmlns="http://www.w3.org/2000/svg" viewBox="0 0 1080 1080">
  <defs>
    <style>
      .cls-1 {
        font-size: 225.52px;
      }

      .cls-1, .cls-2, .cls-3 {
        font-family: NesController, 'Nes Controller';
      }

      .cls-1, .cls-4 {
        fill: #00e380;
      }

      .cls-5, .cls-2, .cls-3 {
        fill: #f6f6f6;
      }

      .cls-2 {
        font-size: 108.75px;
      }

      .cls-3 {
        font-size: 203.18px;
      }

      .cls-6 {
        fill: #272727;
      }
    </style>
  </defs>
  <rect class="cls-6" width="1080" height="1080"/>
  <g>
    <path class="cls-5" d="m444.24,469.58c2.53-10.19,9.32-31.29,28.25-49.31,2.03-1.93,40.52-37.37,90.49-25.38,27.99,6.72,44.44,24.69,49.31,30.16,22.27,25.01,24.9,53.44,25.38,62.24l.48,202.05h-196.3l2.39-219.76Z"/>
    <path class="cls-4" d="m320.56,422.31c-3.33,3.79-7.99,5.7-12.68,5.7-3.99,0-7.99-1.39-11.21-4.26-72.95-64.82-109.94-132.51-109.94-201.16v-.82c0-59,35.89-126.07,83.5-156.03,7.91-4.97,18.35-2.57,23.33,5.38,4.97,7.93,2.58,18.42-5.34,23.39-37.93,23.85-67.64,79.77-67.64,127.26v.82c0,58.51,33.16,117.64,98.55,175.75,6.99,6.23,7.64,16.96,1.43,23.97m108.91-62.98c-3.1,5.53-8.86,8.67-14.79,8.67-2.8,0-5.63-.69-8.26-2.15-49.46-27.78-82.75-82.32-82.96-135.89v-.51c.18-50.93,28.2-97.25,73.2-120.98,8.27-4.37,18.5-1.19,22.87,7.12,4.34,8.29,1.16,18.56-7.12,22.93-33.91,17.9-55.01,52.81-55.09,91.19.08,41.74,26.46,84.52,65.64,106.51,8.15,4.57,11.06,14.93,6.51,23.12m244.12,6.52c-2.62,1.46-5.44,2.15-8.27,2.15-5.92,0-11.67-3.14-14.77-8.67-4.55-8.2-1.65-18.55,6.51-23.12,39.18-21.99,65.54-64.77,65.64-106.51-.09-38.38-21.18-73.3-55.1-91.19-8.28-4.36-11.47-14.64-7.11-22.93,4.37-8.3,14.59-11.49,22.89-7.12,44.98,23.74,72.99,70.05,73.2,120.98v.51c-.23,53.57-33.53,108.11-82.98,135.89m219.69-143.26c0,68.65-36.98,136.33-109.92,201.16-3.21,2.87-7.25,4.26-11.23,4.26-4.67,0-9.33-1.91-12.67-5.7-6.21-7.01-5.57-17.74,1.45-23.97,65.38-58.11,98.54-117.25,98.54-175.75v-.82c0-47.49-29.71-103.42-67.64-127.26-7.93-4.97-10.3-15.46-5.33-23.39,4.96-7.95,15.4-10.34,23.33-5.38,47.6,29.96,83.48,97.03,83.48,156.03v.82"/>
    <path class="cls-5" d="m539.97,323.37c-42.88,0-77.74-34.91-77.74-77.97s34.86-77.95,77.74-77.95,77.8,34.86,77.8,77.95-34.78,77.97-77.8,77.97"/>
    <text class="cls-3" transform="translate(14.18 843.6)"><tspan x="0" y="0">Indoamérica</tspan></text>
    <text class="cls-1" transform="translate(530.67 970.82)"><tspan x="0" y="0">103.9</tspan></text>
    <text class="cls-2" transform="translate(112.83 932.24)"><tspan x="0" y="0">La Radio</tspan></text>
  </g>
</svg>